#!OML:ASF I:\Actors\actors\Patient Classification 2\Patient 1\Session 1\actor1.ASF
:FULLY-SPECIFIED
:DEGREES
262
root -0.595368 18.7455 5.69264 3.83369 -1.99299 -2.73135
lowerback 2.84863 0.851391 -2.57181
upperback 0.194615 1.01954 -2.15848
thorax -1.40304 0.518472 -0.81318
lowerneck -13.3441 -2.42235 -1.82138
upperneck 33.8201 -4.54066 4.19245
head 13.8578 -1.66468 1.28627
rclavicle -5.96354e-016 2.8625e-014
rhumerus -17.24 36.8212 -89.8844
rradius 87.8735
rwrist 14.6336
rhand -10.3828 -62.2668
rfingers 7.12502
rthumb 15.615 -268.343
lclavicle -5.96354e-016 2.8625e-014
lhumerus -7.69187 -31.0577 85.0373
lradius 75.829
lwrist -5.61693
lhand 13.0832 -27.7993
lfingers 7.12502
lthumb 38.0445 -2.01223
rfemur 0 0 0
rtibia 0
rfoot 0 0
rtoes 0
lfemur -6.81569 -6.44357 -11.6566
ltibia 22.5055
lfoot -23.9504 15.4399
ltoes -54.1898
263
root -0.59808 18.7453 5.69201 3.78083 -2.087 -2.76025
lowerback 2.90096 0.867005 -2.66703
upperback 0.214035 1.03688 -2.07179
thorax -1.41581 0.527905 -0.67236
lowerneck -13.3423 -2.41167 -1.84881
upperneck 33.8048 -4.50341 4.15475
head 13.8483 -1.65727 1.28164
rclavicle 1.98785e-015 7.95139e-015
rhumerus -17.0608 36.8572 -89.8236
rradius 87.2721
rwrist 14.6226
rhand -10.443 -62.2502
rfingers 7.12502
rthumb 15.557 -268.356
lclavicle 1.98785e-015 7.95139e-015
lhumerus -7.7042 -30.9445 85.2183
lradius 75.7975
lwrist -5.62857
lhand 13.0716 -27.8183
lfingers 7.12502
lthumb 38.0335 -2.02821
rfemur 0 0 0
rtibia 0
rfoot 0 0
rtoes 0
lfemur -6.7225 -6.39662 -11.634
ltibia 22.4852
lfoot -23.948 15.4574
ltoes -54.2782
264
root -0.599814 18.7441 5.69156 3.70862 -2.2286 -2.73446
lowerback 2.97005 0.904972 -2.81502
upperback 0.217622 1.08071 -1.99663
thorax -1.45542 0.551139 -0.515535
lowerneck -13.3617 -2.40486 -1.9295
upperneck 33.8279 -4.49783 4.22818
head 13.8671 -1.65478 1.32635
rclavicle -1.91827e-014 4.77083e-015
rhumerus -16.8193 36.8838 -89.7973
rradius 86.3888
rwrist 14.6434
rhand -10.6194 -62.2394
rfingers 7.12502
rthumb 15.3871 -268.353
lclavicle -1.91827e-014 4.77083e-015
lhumerus -7.74184 -30.8747 85.4074
lradius 75.8067
lwrist -5.51573
lhand 13.229 -27.7155
lfingers 7.12502
lthumb 38.1821 -1.96608
rfemur 0 0 0
rtibia 0
rfoot 0 0
rtoes 0
lfemur -6.5855 -6.3393 -11.6878
ltibia 22.4419
lfoot -23.9099 15.5928
ltoes -54.4733
265
root -0.601324 18.7427 5.69218 3.6793 -2.43929 -2.66886
lowerback 2.9763 0.97808 -2.9741
upperback 0.202755 1.17223 -1.97206
thorax -1.47903 0.598123 -0.405699
lowerneck -13.3878 -2.41958 -2.01483
upperneck 33.8622 -4.56427 4.41676
head 13.8999 -1.66857 1.40701
rclavicle 5.56597e-015 1.27222e-014
rhumerus -16.5614 36.8333 -89.8834
rradius 85.302
rwrist 14.8962
rhand -10.7473 -62.287
rfingers 7.12502
rthumb 15.264 -268.296
lclavicle 5.56597e-015 1.27222e-014
lhumerus -7.78932 -30.9159 85.519
lradius 75.8658
lwrist -5.39378
lhand 13.4019 -27.6281
lfingers 7.12502
lthumb 38.3453 -1.9237
rfemur 0 0 0
rtibia 0
rfoot 0 0
rtoes 0
lfemur -6.4705 -6.30021 -11.7963
ltibia 22.3871
lfoot -23.9304 15.7997
ltoes -54.5877
266
root -0.60166 18.7417 5.6945 3.67775 -2.70475 -2.58806
lowerback 2.90498 1.08703 -3.09833
upperback 0.201768 1.31623 -1.98244
thorax -1.44483 0.670354 -0.351745
lowerneck -13.3993 -2.45369 -2.01758
upperneck 33.8526 -4.64421 4.50272
head 13.905 -1.69188 1.42925
rclavicle 1.55052e-014 -2.70347e-014
rhumerus -16.2372 36.7433 -89.9587
rradius 84.1324
rwrist 15.3076
rhand -10.7758 -62.4014
rfingers 7.12502
rthumb 15.2365 -268.18
lclavicle 1.55052e-014 -2.70347e-014
lhumerus -7.8055 -31.041 85.5901
lradius 75.9326
lwrist -5.33999
lhand 13.4264 -27.6501
lfingers 7.12502
lthumb 38.3684 -1.95209
rfemur 0 0 0
rtibia 0
rfoot 0 0
rtoes 0
lfemur -6.3571 -6.28185 -11.9309
ltibia 22.3321
lfoot -24.082 15.9777
ltoes -54.4627
